<?xml version="1.0" encoding="UTF-8" standalone="no"?>
<svg
   width="44"
   height="44"
   viewBox="0 0 44 44"
   fill="none"
   version="1.1"
   id="svg3"
   xmlns="http://www.w3.org/2000/svg"
   xmlns:svg="http://www.w3.org/2000/svg">
  <g
     clip-path="url(#clip0_7962_8649)"
     id="g3">
    <path
       id="path3"
       style="baseline-shift:baseline;display:inline;overflow:visible;vector-effect:none;fill:#1a1a1a;stroke-linecap:round;stroke-linejoin:round;enable-background:accumulate;stop-color:#000000;stop-opacity:1;opacity:1"
       d="m 22,30.416016 a 0.75,0.75 0 0 0 -0.75,0.75 0.75,0.75 0 0 0 0.75,0.75 h 0.01758 a 0.75,0.75 0 0 0 0.75,-0.75 0.75,0.75 0 0 0 -0.75,-0.75 z M 22,15.75 a 0.75,0.75 0 0 0 -0.75,0.75 v 7.333984 a 0.75,0.75 0 0 0 0.75,0.75 0.75,0.75 0 0 0 0.75,-0.75 V 16.5 A 0.75,0.75 0 0 0 22,15.75 Z M 21.982422,4.7246094 c -0.78124,0 -1.549616,0.2062846 -2.22461,0.5996093 -0.675135,0.3933371 -1.233966,0.9590288 -1.61914,1.6386719 L 3.4765625,32.625 c -0.3893713,0.674308 -0.5935193,1.440153 -0.5917969,2.21875 0.00172,0.778597 0.2092244,1.542257 0.6015625,2.214844 0.3923366,0.672604 0.9539959,1.23044 1.6308594,1.615234 0.6768974,0.384699 1.4440543,0.583158 2.2226562,0.576172 H 36.666016 a 0.750075,0.750075 0 0 0 0.002,0 c 0.774819,-8.43e-4 1.536304,-0.205935 2.207031,-0.59375 0.670821,-0.38799 1.226198,-0.945994 1.613281,-1.617188 0.387116,-0.67125 0.592038,-1.432146 0.591797,-2.207031 C 41.079837,34.057219 40.8758,33.296081 40.488281,32.625 L 25.824219,6.9628906 l -0.002,-0.00195 C 25.437105,6.2823249 24.879248,5.7170632 24.205078,5.3242187 23.530084,4.930894 22.763661,4.7246094 21.982422,4.7246094 Z m 0,1.5 c 0.51596,0 1.022944,0.1367091 1.46875,0.3964843 0.445821,0.259784 0.813966,0.6331527 1.068359,1.0820313 a 0.750075,0.750075 0 0 0 0.002,0.00195 L 39.1875,33.373047 a 0.750075,0.750075 0 0 0 0.002,0.002 c 0.255882,0.443119 0.390466,0.945243 0.390625,1.457031 1.59e-4,0.511716 -0.134941,1.015635 -0.390625,1.458985 -0.255716,0.443406 -0.623427,0.810196 -1.066406,1.066406 -0.443073,0.256185 -0.94525,0.392021 -1.457031,0.392578 H 7.3339844 a 0.750075,0.750075 0 0 0 -0.00781,0 C 6.8119338,37.754614 6.3064776,37.623241 5.859375,37.369141 5.4122185,37.114934 5.0403535,36.74693 4.78125,36.302734 4.5221281,35.858521 4.3859032,35.354046 4.3847656,34.839844 4.3836281,34.325641 4.518262,33.820292 4.7753906,33.375 a 0.750075,0.750075 0 0 0 0,-0.002 L 19.443359,7.7050781 a 0.750075,0.750075 0 0 0 0,-0.00195 c 0.254426,-0.4489369 0.624448,-0.8222683 1.070313,-1.0820313 0.445806,-0.2597752 0.952789,-0.3964843 1.46875,-0.3964843 z" />
  </g>
  <defs
     id="defs3">
    <clipPath
       id="clip0_7962_8649">
      <rect
         width="44"
         height="44"
         fill="white"
         id="rect3" />
    </clipPath>
  </defs>
</svg>
