<svg width="24" height="24" viewBox="0 0 24 24" fill="none" xmlns="http://www.w3.org/2000/svg">
<path fill-rule="evenodd" clip-rule="evenodd" d="M20.5302 12.7604C20.8048 12.4858 20.8221 12.051 20.582 11.7565L20.5302 11.6998L13.8633 5.03282C13.5703 4.74009 13.0955 4.73998 12.8027 5.03282C12.51 5.32567 12.51 5.80051 12.8027 6.09337L18.9394 12.2291L12.8027 18.3658L12.7519 18.4234C12.5118 18.7179 12.5284 19.1518 12.8027 19.4264C13.0773 19.701 13.512 19.7184 13.8066 19.4781L13.8633 19.4264L20.5302 12.7604ZM11.1969 12.7604C11.4714 12.4858 11.4888 12.051 11.2487 11.7565L11.1969 11.6998L4.52991 5.03282C4.237 4.74009 3.7622 4.73998 3.46936 5.03282C3.17669 5.32567 3.17669 5.80051 3.46936 6.09337L9.60608 12.2291L3.46936 18.3658L3.41858 18.4234C3.17843 18.7179 3.19509 19.1518 3.46936 19.4264C3.74395 19.701 4.17869 19.7184 4.47327 19.4781L4.52991 19.4264L11.1969 12.7604Z" fill="#1A1A1A"/>
</svg>
