<svg width="24" height="24" viewBox="0 0 24 24" fill="none" xmlns="http://www.w3.org/2000/svg">
<path fill-rule="evenodd" clip-rule="evenodd" d="M3.46975 11.2396C3.19521 11.5142 3.17786 11.949 3.418 12.2435L3.46975 12.3002L10.1367 18.9672C10.4297 19.2599 10.9045 19.26 11.1973 18.9672C11.49 18.6743 11.49 18.1995 11.1973 17.9066L5.06058 11.7709L11.1973 5.63417L11.2481 5.57655C11.4882 5.28209 11.4716 4.84822 11.1973 4.57362C10.9227 4.29903 10.488 4.28159 10.1934 4.52187L10.1367 4.57362L3.46975 11.2396ZM12.8031 11.2396C12.5286 11.5142 12.5112 11.949 12.7513 12.2435L12.8031 12.3002L19.4701 18.9672C19.763 19.2599 20.2378 19.26 20.5306 18.9672C20.8233 18.6743 20.8233 18.1995 20.5306 17.9066L14.3939 11.7709L20.5306 5.63417L20.5814 5.57655C20.8216 5.28209 20.8049 4.84822 20.5306 4.57362C20.256 4.29903 19.8213 4.28159 19.5267 4.52187L19.4701 4.57362L12.8031 11.2396Z" fill="#1A1A1A"/>
</svg>
